<svg width="46" height="46" viewBox="0 0 46 46" fill="none" xmlns="http://www.w3.org/2000/svg">
<path d="M31.6025 10.2331L31.7113 10.3175L31.8575 10.4563L31.9925 10.6138L32.0169 10.6475C32.303 11.0405 32.4254 11.5292 32.3581 12.0106L32.3169 12.2188L32.2606 12.3913C30.4044 17.5006 31.0119 22.0625 33.5338 26.84C34.9346 27.0591 36.2447 27.6708 37.3121 28.6041C38.3794 29.5375 39.1603 30.7543 39.5643 32.1135C39.9682 33.4726 39.9785 34.9184 39.5941 36.2832C39.2097 37.648 38.4463 38.8759 37.3924 39.8245C36.3385 40.773 35.0374 41.4034 33.6398 41.6425C32.2422 41.8817 30.8054 41.7197 29.4961 41.1754C28.1869 40.6312 27.0587 39.7269 26.2424 38.5675C25.4262 37.4082 24.9553 36.0411 24.8844 34.625L24.875 34.25L24.8844 33.875C24.9557 32.4447 25.435 31.0647 26.2656 29.8981C27.0963 28.7315 28.2436 27.8271 29.5719 27.2919C27.7962 23.4856 27.0556 19.67 27.5994 15.6538C27.2881 15.7988 26.9763 15.935 26.6638 16.0625L26.84 15.9425C22.6344 18.6988 20.18 21.575 19.3775 24.5113C20.5551 25.3301 21.5045 26.4355 22.1361 27.7233C22.7677 29.011 23.0606 30.4385 22.9871 31.8709C22.9137 33.3033 22.4763 34.6933 21.7163 35.9096C20.9563 37.126 19.8987 38.1286 18.6436 38.8226C17.3884 39.5166 15.977 39.8793 14.5427 39.8762C13.1085 39.8732 11.6986 39.5045 10.4464 38.8052C9.19423 38.1058 8.14098 37.0987 7.38616 35.8792C6.63133 34.6596 6.19986 33.2677 6.1325 31.835L6.125 31.4375L6.13438 31.04C6.19012 29.8549 6.49516 28.6949 7.02958 27.6357C7.564 26.5765 8.31579 25.6419 9.23587 24.8929C10.156 24.1439 11.2236 23.5974 12.3693 23.289C13.5149 22.9806 14.7126 22.9173 15.8844 23.1031C16.5069 21.0913 17.6562 19.1731 19.3156 17.3488C15.9519 17.1688 12.5919 15.9256 9.275 13.625L8.7725 13.2688L8.67688 13.1938L8.59063 13.1188L8.50812 13.0363L8.43313 12.95L8.35812 12.8563L8.29812 12.7681L8.2325 12.6556L8.13313 12.4494L8.06187 12.2319L8.01875 12.0125L8.00938 11.9338L8 11.7125L8.01875 11.4913L8.06187 11.2719L8.13313 11.0563L8.18937 10.9325L8.2325 10.8481L8.29812 10.7356L8.35812 10.6494L8.43313 10.5538L8.50812 10.4675L8.59063 10.385L8.67688 10.31L8.77062 10.235C16.3044 4.75626 24.0706 4.75438 31.6025 10.2331Z" fill="white"/>
</svg>
