<svg width="46" height="46" viewBox="0 0 46 46" fill="none" xmlns="http://www.w3.org/2000/svg">
<path d="M23 41.75C20.4063 41.75 17.9688 41.2575 15.6875 40.2725C13.4063 39.2875 11.4219 37.9519 9.73438 36.2656C8.04688 34.5794 6.71125 32.595 5.7275 30.3125C4.74375 28.03 4.25125 25.5925 4.25 23C4.24875 20.4075 4.74125 17.97 5.7275 15.6875C6.71375 13.405 8.04938 11.4206 9.73438 9.73438C11.4194 8.04813 13.4038 6.7125 15.6875 5.7275C17.9713 4.7425 20.4088 4.25 23 4.25C25.5913 4.25 28.0288 4.7425 30.3125 5.7275C32.5963 6.7125 34.5806 8.04813 36.2656 9.73438C37.9506 11.4206 39.2869 13.405 40.2744 15.6875C41.2619 17.97 41.7538 20.4075 41.75 23C41.7463 25.5925 41.2538 28.03 40.2725 30.3125C39.2913 32.595 37.9556 34.5794 36.2656 36.2656C34.5756 37.9519 32.5913 39.2881 30.3125 40.2744C28.0338 41.2606 25.5963 41.7525 23 41.75ZM21.125 37.8594V35.9844C20.0313 35.8281 18.9769 35.5313 17.9619 35.0938C16.9469 34.6563 16.0013 34.125 15.125 33.5L13.8125 34.8594C14.8438 35.6719 15.9769 36.3363 17.2119 36.8525C18.4469 37.3688 19.7513 37.7044 21.125 37.8594ZM24.875 37.8594C26.25 37.7031 27.555 37.3675 28.79 36.8525C30.025 36.3375 31.1575 35.6731 32.1875 34.8594L30.875 33.5C30 34.125 29.055 34.6563 28.04 35.0938C27.025 35.5313 25.97 35.8281 24.875 35.9844V37.8594ZM23 32.375C25.5938 32.375 27.805 31.4606 29.6338 29.6319C31.4625 27.8031 32.3763 25.5925 32.375 23C32.3738 20.4075 31.4594 18.1969 29.6319 16.3681C27.8044 14.5394 25.5938 13.625 23 13.625C20.4063 13.625 18.1956 14.5394 16.3681 16.3681C14.5406 18.1969 13.6263 20.4075 13.625 23C13.6238 25.5925 14.5381 27.8038 16.3681 29.6338C18.1981 31.4638 20.4088 32.3775 23 32.375ZM34.8594 32.1875C35.6719 31.1562 36.3363 30.0238 36.8525 28.79C37.3688 27.5563 37.7044 26.2512 37.8594 24.875H35.9844C35.8281 25.9688 35.5313 27.0238 35.0938 28.04C34.6563 29.0562 34.125 30.0013 33.5 30.875L34.8594 32.1875ZM11.1406 32.1875L12.5 30.8281C11.875 29.9531 11.3438 29.0156 10.9063 28.0156C10.4688 27.0156 10.1719 25.9688 10.0156 24.875H8.14063C8.29688 26.25 8.6325 27.5544 9.1475 28.7881C9.6625 30.0219 10.3269 31.155 11.1406 32.1875ZM22.25 29.5156L18.2188 24.125C17.9688 23.7812 17.8438 23.4062 17.8438 23C17.8438 22.5938 17.9688 22.2188 18.2188 21.875L22.25 16.4844C22.4375 16.2344 22.6875 16.1094 23 16.1094C23.3125 16.1094 23.5625 16.2344 23.75 16.4844L27.7813 21.875C28.0313 22.2188 28.1563 22.5938 28.1563 23C28.1563 23.4062 28.0313 23.7812 27.7813 24.125L23.75 29.5156C23.5625 29.7656 23.3125 29.8906 23 29.8906C22.6875 29.8906 22.4375 29.7656 22.25 29.5156ZM8.14063 21.125H10.0156C10.1719 20.0312 10.4688 18.9844 10.9063 17.9844C11.3438 16.9844 11.875 16.0469 12.5 15.1719L11.1406 13.8125C10.3281 14.8438 9.66438 15.9769 9.14938 17.2119C8.63438 18.4469 8.29813 19.7513 8.14063 21.125ZM35.9844 21.125H37.8594C37.7031 19.75 37.3594 18.4456 36.8281 17.2119C36.2969 15.9781 35.625 14.845 34.8125 13.8125L33.5 15.125C34.125 16 34.6563 16.9456 35.0938 17.9619C35.5313 18.9781 35.8281 20.0325 35.9844 21.125ZM15.1719 12.5C16.0469 11.875 16.9844 11.3438 17.9844 10.9063C18.9844 10.4688 20.0313 10.1719 21.125 10.0156V8.14062C19.75 8.29687 18.4456 8.63312 17.2119 9.14937C15.9781 9.66563 14.845 10.3294 13.8125 11.1406L15.1719 12.5ZM30.875 12.5L32.1875 11.1875C31.1563 10.375 30.0238 9.70312 28.79 9.17188C27.5563 8.64062 26.2513 8.29687 24.875 8.14062V10.0156C25.9688 10.1719 27.0238 10.4688 28.04 10.9063C29.0563 11.3438 30.0013 11.875 30.875 12.5Z" fill="white"/>
</svg>
